<?xml version="1.0" encoding="UTF-8" standalone="no"?>
<!DOCTYPE svg PUBLIC "-//W3C//DTD SVG 1.1//EN" "http://www.w3.org/Graphics/SVG/1.1/DTD/svg11.dtd">
<svg width="100%" height="100%" viewBox="0 0 1080 1080" version="1.1" xmlns="http://www.w3.org/2000/svg" xmlns:xlink="http://www.w3.org/1999/xlink" xml:space="preserve" xmlns:serif="http://www.serif.com/" style="fill-rule:evenodd;clip-rule:evenodd;stroke-linejoin:round;stroke-miterlimit:2;">
    <path d="M540,940C319.234,940 140,760.766 140,540C140,319.234 319.234,140 540,140C760.766,140 940,319.234 940,540L940,940L540,940ZM540,840L840,840L840,540C840,374.425 705.575,240 540,240C374.425,240 240,374.425 240,540C240,705.575 374.425,840 540,840Z"/>
    <clipPath id="_clip1">
        <path d="M540,940C319.234,940 140,760.766 140,540C140,319.234 319.234,140 540,140C760.766,140 940,319.234 940,540L940,940L540,940ZM540,840L840,840L840,540C840,374.425 705.575,240 540,240C374.425,240 240,374.425 240,540C240,705.575 374.425,840 540,840Z"/>
    </clipPath>
    <g clip-path="url(#_clip1)">
        <g transform="matrix(0.906037,0,0,1,0,0)">
            <rect x="0" y="0" width="596.002" height="1080" style="fill:white;"/>
        </g>
    </g>
    <path d="M540,956C310.403,956 124,769.597 124,540C124,310.403 310.403,124 540,124C769.597,124 956,310.403 956,540L956,940C956,948.837 948.837,956 940,956L540,956ZM540,940L940,940L940,540C940,319.234 760.766,140 540,140C319.234,140 140,319.234 140,540C140,760.766 319.234,940 540,940ZM540,840C374.425,840 240,705.575 240,540C240,374.425 374.425,240 540,240C705.575,240 840,374.425 840,540L840,840L540,840ZM540,824L824,824L824,540C824,383.256 696.744,256 540,256C383.256,256 256,383.256 256,540C256,696.744 383.256,824 540,824Z" style="fill:white;"/>
    <path d="M540,944C317.026,944 136,762.974 136,540C136,317.026 317.026,136 540,136C762.974,136 944,317.026 944,540L944,940C944,942.209 942.209,944 940,944L540,944ZM540,940L940,940L940,540C940,319.234 760.766,140 540,140C319.234,140 140,319.234 140,540C140,760.766 319.234,940 540,940ZM540,840C374.425,840 240,705.575 240,540C240,374.425 374.425,240 540,240C705.575,240 840,374.425 840,540L840,840L540,840ZM540,836L836,836L836,540C836,376.633 703.367,244 540,244C376.633,244 244,376.633 244,540C244,703.367 376.633,836 540,836Z"/>
</svg>
