<?xml version="1.0" encoding="UTF-8" standalone="no"?>
<!DOCTYPE svg PUBLIC "-//W3C//DTD SVG 1.1//EN" "http://www.w3.org/Graphics/SVG/1.1/DTD/svg11.dtd">
<svg width="100%" height="100%" viewBox="0 0 1080 1080" version="1.1" xmlns="http://www.w3.org/2000/svg" xmlns:xlink="http://www.w3.org/1999/xlink" xml:space="preserve" xmlns:serif="http://www.serif.com/" style="fill-rule:evenodd;clip-rule:evenodd;stroke-linejoin:round;stroke-miterlimit:2;">
    <path d="M540,940C319.234,940 140,760.766 140,540C140,319.234 319.234,140 540,140C760.766,140 940,319.234 940,540L940,940L540,940ZM540,840L840,840L840,540C840,374.425 705.575,240 540,240C374.425,240 240,374.425 240,540C240,705.575 374.425,840 540,840Z"/>
    <clipPath id="_clip1">
        <path d="M540,940C319.234,940 140,760.766 140,540C140,319.234 319.234,140 540,140C760.766,140 940,319.234 940,540L940,940L540,940ZM540,840L840,840L840,540C840,374.425 705.575,240 540,240C374.425,240 240,374.425 240,540C240,705.575 374.425,840 540,840Z"/>
    </clipPath>
    <g clip-path="url(#_clip1)">
        <g transform="matrix(0.906037,0,0,1,0,0)">
            <rect x="0" y="0" width="596.002" height="1080" style="fill:white;"/>
        </g>
    </g>
    <path d="M540,1040C264.042,1040 40,815.958 40,540C40,264.042 264.042,40 540,40C815.958,40 1040,264.042 1040,540L1040,1040L540,1040ZM540,940L940,940L940,540C940,319.234 760.766,140 540,140C319.234,140 140,319.234 140,540C140,760.766 319.234,940 540,940ZM540,840C374.425,840 240,705.575 240,540C240,374.425 374.425,240 540,240C705.575,240 840,374.425 840,540L840,840L540,840ZM540,740L740,740L740,540C740,429.617 650.383,340 540,340C429.617,340 340,429.617 340,540C340,650.383 429.617,740 540,740Z" style="fill:white;"/>
    <path d="M540,992C290.534,992 88,789.466 88,540C88,290.534 290.534,88 540,88C789.466,88 992,290.534 992,540L992,992L540,992ZM540,940L940,940L940,540C940,319.234 760.766,140 540,140C319.234,140 140,319.234 140,540C140,760.766 319.234,940 540,940ZM540,840C374.425,840 240,705.575 240,540C240,374.425 374.425,240 540,240C705.575,240 840,374.425 840,540L840,840L540,840ZM540,788L788,788L788,540C788,403.125 676.875,292 540,292C403.125,292 292,403.125 292,540C292,676.875 403.125,788 540,788Z"/>
</svg>
